Coordinates
version=1
nRows=19
nColumns=36
inDegrees=yes

Units are S.I. units (second, meters, Newtons, ...)
If the header above contains a line with 'inDegrees', this indicates whether rotational values are in degrees (yes) or radians (no).

endheader
time	pelvis_tilt	pelvis_list	pelvis_rotation	pelvis_tx	pelvis_ty	pelvis_tz	hip_flexion_r	hip_adduction_r	hip_rotation_r	knee_angle_r	knee_angle_r_beta	ankle_angle_r	subtalar_angle_r	mtp_angle_r	hip_flexion_l	hip_adduction_l	hip_rotation_l	knee_angle_l	knee_angle_l_beta	ankle_angle_l	subtalar_angle_l	mtp_angle_l	lumbar_extension	lumbar_bending	lumbar_rotation	arm_flex_r	arm_add_r	arm_rot_r	elbow_flex_r	pro_sup_r	arm_flex_l	arm_add_l	arm_rot_l	elbow_flex_l	pro_sup_l
      0.00000000	     -0.51705135	     -0.76900251	      1.18071042	     -0.13173233	      1.15481450	     -0.59738878	     -2.25910201	     -7.61735432	     -7.22617105	      3.15822138	      0.05512136	      5.26219086	      5.04974415	     -4.15302081	     -3.01443781	     -9.44748566	    -12.07677131	      2.23544482	      0.03901587	      5.12556387	     13.59951532	     -4.15302081	     -5.77175611	      0.59833056	      0.02217188	     -9.34753207	     -7.65658992	    -11.50338901	     58.96622668	    106.37093230	     -9.33753006	     -5.69062181	     -9.23606017	     55.38567527	    103.39445540
      0.01000000	     -0.73628563	     -0.75573854	      1.25277599	     -0.13217180	      1.15470203	     -0.59757511	     -1.96967682	     -7.64564733	     -7.13878153	      3.26859857	      0.05704781	      5.28218152	      4.90950486	     -4.39180941	     -2.73788589	     -9.41063588	    -11.55470358	      2.23626442	      0.03903018	      5.00839817	     13.16766574	     -4.39180941	     -5.42839954	      0.59036142	     -0.00672842	     -9.18169792	     -7.74611881	    -11.24509531	     59.46084313	    105.46088322	     -9.17979998	     -5.79067045	     -8.95044375	     55.88326469	    102.39429766
      0.02000000	     -0.53962223	     -0.74779727	      1.26850612	     -0.13242796	      1.15499100	     -0.59764172	     -2.14898114	     -7.66670901	     -7.24898014	      3.30032931	      0.05760161	      5.24860847	      5.01835779	     -4.55472547	     -2.92400429	     -9.40219647	    -11.57471462	      2.24147189	      0.03912106	      4.88453895	     13.03181399	     -4.55472547	     -5.66965372	      0.59076601	      0.01461982	     -9.10442206	     -7.94162752	    -10.76419998	     60.46852460	    105.20621291	     -9.13281863	     -6.07817776	     -8.31764728	     56.86767860	    102.11517875
      0.03000000	     -0.59361246	     -0.73556128	      1.26896204	     -0.13276902	      1.15494866	     -0.59772301	     -1.95768817	     -7.72160565	     -7.61175630	      3.51246116	      0.06130401	      5.47983064	      5.49512626	     -5.04972709	     -2.79579204	     -9.39270766	    -11.61231670	      2.34082536	      0.04085511	      4.91359411	     13.01224032	     -5.04972709	     -5.59721174	      0.56312005	      0.13878962	     -9.09780691	     -8.05564137	    -10.85622118	     61.18336613	    110.62569436	     -9.05785460	     -6.31337072	     -8.08121061	     57.33969730	    107.35262166
      0.04000000	     -0.50340834	     -0.67077261	      1.26298558	     -0.13318227	      1.15518036	     -0.59790232	     -2.01804962	     -7.80116709	     -7.54765011	      3.54137287	      0.06180862	      5.43366517	      5.42613155	     -5.20902506	     -2.88161448	     -9.30611812	    -11.51755907	      2.32008765	      0.04049317	      4.88852203	     12.95221826	     -5.20902506	     -5.69087708	      0.49321169	      0.12920648	     -8.92037844	     -8.27283724	    -10.28504694	     62.12718437	    109.72507016	     -8.92302840	     -6.54936035	     -7.52595122	     58.18109307	    106.43385608
      0.05000000	     -0.37339459	     -0.64782033	      1.23698116	     -0.13355992	      1.15541406	     -0.59792539	     -2.13238317	     -7.82090840	     -7.43195612	      3.54372421	      0.06184966	      5.34575218	      5.28289982	     -5.38645863	     -3.01486350	     -9.27214693	    -11.51996038	      2.28720829	      0.03991932	      4.80453696	     12.77354935	     -5.38645863	     -5.86461610	      0.44804121	      0.17459640	     -8.84706876	     -8.49008032	     -9.71053943	     63.36131451	    109.04656050	     -8.85279255	     -6.86003915	     -6.84683042	     59.37968812	    105.73171790
      0.06000000	     -0.67455357	     -0.70503131	      1.17859307	     -0.13426369	      1.15513983	     -0.59789987	     -1.69724911	     -7.76584322	     -7.15679551	      3.65418421	      0.06377755	      5.36491623	      5.05067158	     -5.59646616	     -2.66140907	     -9.31071993	    -10.95816493	      2.32393194	      0.04056026	      4.68244868	     12.31861888	     -5.59646616	     -5.47106964	      0.49442494	      0.23995959	     -8.63449739	     -8.65960378	     -9.20510605	     64.17906692	    107.32150757	     -8.71189873	     -7.01736937	     -6.33022622	     60.22635848	    104.07106704
      0.07000000	     -0.39708628	     -0.75807118	      1.14737175	     -0.13473284	      1.15539757	     -0.59789368	     -1.89407601	     -7.72880923	     -7.42690013	      3.76486645	      0.06570932	      5.41129328	      5.41164976	     -5.81991816	     -2.80272336	     -9.42959715	    -11.77657296	      2.57499156	      0.04494208	      4.98768265	     13.16012243	     -5.81991816	     -5.87546883	      0.57442235	      0.49231514	     -8.70153849	     -8.84894827	     -9.10787553	     65.70393241	    109.23064088	     -8.47103532	     -7.42445346	     -5.46877494	     61.28227573	    106.57678315
      0.08000000	     -0.68579643	     -0.75269942	      1.13675234	     -0.13542426	      1.15519378	     -0.59796454	     -1.46921646	     -7.74908003	     -7.33323025	      3.90217590	      0.06810582	      5.31604660	      5.16146136	     -5.89706404	     -2.40124864	     -9.40898862	    -11.54077244	      2.67401017	      0.04667028	      4.90658020	     12.70635669	     -5.89706404	     -5.48682608	      0.54665152	      0.46301133	     -8.44018651	     -8.94275596	     -8.75464166	     66.48709621	    108.65923441	     -8.29530405	     -7.54531054	     -5.18976389	     62.11180881	    105.99612544
      0.09000000	     -0.25301744	     -0.72239393	      1.20023165	     -0.13598064	      1.15573649	     -0.59815366	     -1.95815917	     -7.76657801	     -7.26989042	      3.82667234	      0.06678803	      5.21819699	      5.02397018	     -6.01386706	     -2.84842833	     -9.36513730	    -11.27741448	      2.61809161	      0.04569432	      4.73127902	     12.47787890	     -6.01386706	     -6.11381660	      0.54527682	      0.42350806	     -8.28250056	     -9.30433170	     -7.85926988	     68.26929415	    107.63230761	     -8.16400806	     -7.98812136	     -4.29775450	     63.86328004	    105.14313599
      0.10000000	     -0.15005228	     -0.73077476	      1.21818104	     -0.13669464	      1.15591662	     -0.59819274	     -1.99908300	     -7.75960053	     -7.30783684	      3.88616084	      0.06782630	      5.19699801	      5.03964993	     -6.23363262	     -2.86888329	     -9.38400860	    -11.23873231	      2.69881791	      0.04710326	      4.75614783	     12.43855592	     -6.23363262	     -6.30901831	      0.54089767	      0.46576011	     -8.08727517	     -9.53537845	     -7.16147683	     69.87526552	    104.72855050	     -7.95023896	     -8.33379200	     -3.45076850	     65.53920071	    102.66262921
      0.11000000	     -0.40446109	     -0.75854831	      1.24824110	     -0.13773308	      1.15569737	     -0.59825242	     -1.59613062	     -7.73699576	     -7.18344036	      4.03719606	      0.07046236	      5.16780853	      4.82721025	     -6.30152051	     -2.45967355	     -9.41160631	    -10.95175940	      2.82711687	      0.04934250	      4.66576550	     12.12839798	     -6.30152051	     -6.10783995	      0.56020305	      0.46820903	     -7.80137383	     -9.79144602	     -6.50635236	     71.18935599	    104.43421361	     -7.68853494	     -8.62196800	     -2.71964172	     66.85961085	    102.42363411
      0.12000000	     -0.23236598	     -0.76047417	      1.25492405	     -0.13865218	      1.15600954	     -0.59823490	     -1.67461343	     -7.74095759	     -7.27741236	      4.14286762	      0.07230668	      5.18163215	      4.92694112	     -6.37564666	     -2.53268369	     -9.42852491	    -10.96652263	      2.93291594	      0.05118904	      4.64914152	     12.10659351	     -6.37564666	     -6.41547318	      0.55639585	      0.50889563	     -7.41492525	    -10.02267962	     -5.81309768	     72.54955132	    103.87844289	     -7.30198526	     -8.95614145	     -1.88305553	     68.26020279	    102.05501189
      0.13000000	     -0.38285885	     -0.76021299	      1.22122491	     -0.13976120	      1.15599523	     -0.59822616	     -1.33027046	     -7.75305075	     -7.11490339	      4.36123613	      0.07611793	      5.12185567	      4.67248455	     -6.42756119	     -2.24127552	     -9.42391693	    -10.85849273	      3.06258451	      0.05345218	      4.54422512	     11.79089369	     -6.42756119	     -6.35822154	      0.55255369	      0.56405117	     -7.04277913	    -10.29621656	     -5.04955791	     73.95010173	    103.64121612	     -6.90102634	     -9.23267986	     -1.10303286	     69.65371694	    101.86181977
      0.14000000	     -0.26335070	     -0.73298020	      1.14411963	     -0.14088324	      1.15630495	     -0.59822706	     -1.27601949	     -7.79586258	     -6.97638025	      4.55730005	      0.07953989	      5.08994748	      4.52103608	     -6.46487346	     -2.27340553	     -9.38962649	    -10.86714523	      3.16649896	      0.05526583	      4.49758948	     11.64704566	     -6.46487346	     -6.63360273	      0.53121144	      0.69946289	     -6.51860451	    -10.61962500	     -4.20351276	     75.34081643	    103.62916918	     -6.36656531	     -9.53537238	     -0.17033520	     71.02758489	    101.92820262
      0.15000000	     -0.14859460	     -0.75104686	      1.01507381	     -0.14216860	      1.15661197	     -0.59820391	     -1.20472583	     -7.77541351	     -6.61187736	      4.73191239	      0.08258745	      4.92424607	      4.10640153	     -6.83666137	     -2.25734341	     -9.42257219	    -11.19604732	      3.35093899	      0.05848492	      4.59119539	     11.88588570	     -6.83666137	     -6.93600523	      0.54781408	      0.99962655	     -5.94000215	    -10.90897538	     -3.77431705	     76.38200715	    107.74083694	     -5.59165726	     -9.81449172	      0.65744119	     71.75417044	    106.50559389
      0.16000000	     -0.16726202	     -0.76322364	      0.84420164	     -0.14360367	      1.15675810	     -0.59805128	     -0.91895470	     -7.76614378	     -6.19739906	      5.01044408	      0.08744875	      4.84149688	      3.68899465	     -7.05221290	     -2.12633357	     -9.43497592	    -11.30911736	      3.48809443	      0.06087873	      4.53446941	     11.76206837	     -7.05221290	     -7.10862547	      0.56556912	      1.28368043	     -5.26824431	    -11.30476934	     -2.85355179	     77.73248334	    107.19598012	     -4.80053645	    -10.11000380	      1.77083660	     72.98578951	    106.42475859
      0.17000000	     -0.21318407	     -0.77309830	      0.72981997	     -0.14530909	      1.15684185	     -0.59782290	     -0.56107622	     -7.75848029	     -5.91707638	      5.35847472	      0.09352303	      4.77412801	      3.37013561	     -7.22426894	     -1.91479680	     -9.45271518	    -11.25747766	      3.66827887	      0.06402354	      4.46562662	     11.46750064	     -7.22426894	     -7.29656329	      0.55470525	      1.42938836	     -4.39605095	    -11.65827665	     -1.86350636	     78.87187111	    107.29725645	     -3.96672768	    -10.38060396	      2.68352080	     74.21754044	    106.79205015
      0.18000000	     -0.38428138	     -0.73926643	      0.61026967	     -0.14732615	      1.15673799	     -0.59765056	      0.00287753	     -7.81418426	     -5.63595692	      5.81366546	      0.10146760	      4.74002513	      3.01321213	     -7.34450419	     -1.52441485	     -9.42082971	    -11.15757212	      3.90480325	      0.06815167	      4.41410118	     11.11223804	     -7.34450419	     -7.38954127	      0.49671971	      1.63121677	     -3.44903468	    -12.02317130	     -0.88764752	     79.99656173	    106.84748209	     -2.96947204	    -10.59344207	      3.65043159	     75.38090712	    106.75810772
